<?xml version="1.0" encoding="UTF-8"?>
<svg id="Layer_1" data-name="Layer 1" xmlns="http://www.w3.org/2000/svg" viewBox="0 0 100 100">
  <defs>
    <style>
      .cls-1 {
        fill: #eeefef;
      }

      .cls-1, .cls-2 {
        stroke-width: 0px;
      }

      .cls-2 {
        fill: #000;
      }
    </style>
  </defs>
  <circle class="cls-2" cx="50" cy="50" r="47.38" transform="translate(-9.48 88.24) rotate(-77.74)"/>
  <path class="cls-1" d="M63.77,42.26c-11.6,0-11.61,11.55-11.61,11.61,0,0-.79,11.57,11.61,11.57,0,0,10.35.59,10.35-8.05h-5.31s.18,3.25-4.86,3.25c0,0-5.31.35-5.31-5.25h15.66s1.72-13.13-10.52-13.13ZM58.57,51.33s.65-4.65,5.31-4.65,4.61,4.65,4.61,4.65h-9.92ZM45.3,48.36s4.61-.34,4.61-5.75-3.77-8.05-8.55-8.05h-15.73v30.24h15.73s9.61.29,9.61-8.93c0,0,.41-7.5-5.66-7.5ZM32.56,39.93h8.8s2.13,0,2.13,3.15-1.25,3.61-2.68,3.61h-8.25v-6.75ZM40.92,59.43h-8.36v-8.09h8.8s3.19-.03,3.18,4.16c0,3.53-2.37,3.9-3.62,3.93ZM57.26,36.34v3.72h12.48v-3.72h-12.48Z"/>
</svg>