<?xml version="1.0" encoding="UTF-8"?>
<svg id="Layer_1" data-name="Layer 1" xmlns="http://www.w3.org/2000/svg" viewBox="0 0 100 100">
  <defs>
    <style>
      .cls-1 {
        fill: #000;
      }

      .cls-1, .cls-2 {
        stroke-width: 0px;
      }

      .cls-2 {
        fill: #fff;
      }
    </style>
  </defs>
  <circle class="cls-1" cx="50" cy="50" r="47.38"/>
  <g>
    <path class="cls-2" d="M50,31.7c5.96,0,6.67.02,9.02.13,2.18.1,3.36.46,4.15.77,1.04.4,1.79.89,2.57,1.67.78.78,1.26,1.52,1.67,2.57.31.79.67,1.97.77,4.15.11,2.35.13,3.06.13,9.02s-.02,6.67-.13,9.02c-.1,2.18-.46,3.36-.77,4.14-.41,1.04-.89,1.79-1.67,2.57s-1.52,1.26-2.57,1.67c-.79.31-1.97.67-4.15.77-2.35.11-3.06.13-9.02.13s-6.67-.02-9.02-.13c-2.18-.1-3.36-.46-4.14-.77-1.04-.41-1.79-.89-2.57-1.67-.78-.78-1.26-1.52-1.67-2.57-.31-.79-.67-1.97-.77-4.14-.11-2.35-.13-3.06-.13-9.02s.02-6.67.13-9.02c.1-2.18.46-3.36.77-4.15.41-1.04.89-1.78,1.67-2.57.78-.78,1.52-1.26,2.57-1.67.79-.31,1.97-.67,4.14-.77,2.35-.11,3.06-.13,9.02-.13M50,27.68c-6.06,0-6.82.03-9.2.13-2.38.11-4,.49-5.42,1.04-1.47.57-2.71,1.33-3.95,2.57-1.24,1.24-2,2.49-2.57,3.95-.55,1.42-.93,3.04-1.04,5.42-.11,2.38-.13,3.14-.13,9.2s.03,6.82.13,9.2c.11,2.38.49,4,1.04,5.42.57,1.47,1.33,2.71,2.57,3.95,1.24,1.24,2.49,2,3.95,2.57,1.42.55,3.04.93,5.42,1.04,2.38.11,3.14.13,9.2.13s6.82-.03,9.2-.13c2.38-.11,4-.49,5.42-1.04,1.47-.57,2.71-1.33,3.95-2.57,1.24-1.24,2-2.49,2.57-3.95.55-1.42.93-3.04,1.04-5.42.11-2.38.13-3.14.13-9.2s-.03-6.82-.13-9.2c-.11-2.38-.49-4-1.04-5.42-.57-1.47-1.33-2.71-2.57-3.95-1.24-1.24-2.49-2-3.95-2.57-1.42-.55-3.04-.93-5.42-1.04-2.38-.11-3.14-.13-9.2-.13"/>
    <path class="cls-2" d="M50,38.54c-6.33,0-11.46,5.13-11.46,11.46s5.13,11.46,11.46,11.46,11.46-5.13,11.46-11.46-5.13-11.46-11.46-11.46M50,57.44c-4.11,0-7.44-3.33-7.44-7.44s3.33-7.44,7.44-7.44,7.44,3.33,7.44,7.44-3.33,7.44-7.44,7.44"/>
    <path class="cls-2" d="M64.59,38.08c0,1.48-1.2,2.68-2.68,2.68s-2.68-1.2-2.68-2.68,1.2-2.68,2.68-2.68,2.68,1.2,2.68,2.68"/>
  </g>
</svg>