<?xml version="1.0" encoding="UTF-8"?>
<svg id="Layer_1" data-name="Layer 1" xmlns="http://www.w3.org/2000/svg" viewBox="0 0 100 100">
  <defs>
    <style>
      .cls-1 {
        fill: #eeefef;
      }

      .cls-1, .cls-2 {
        stroke-width: 0px;
      }

      .cls-2 {
        fill: #000;
      }
    </style>
  </defs>
  <circle class="cls-2" cx="50" cy="50" r="47.38"/>
  <path class="cls-1" d="M71.63,54.67v16h-9.27v-14.92c0-3.75-1.34-6.31-4.7-6.31-2.56,0-4.08,1.72-4.76,3.39-.24.6-.31,1.42-.31,2.26v15.58h-9.27s.12-25.28,0-27.89h9.28v3.95s-.04.06-.06.09h.06v-.09c1.23-1.9,3.43-4.61,8.36-4.61,6.1,0,10.68,3.99,10.68,12.55h0ZM33.62,29.33c-3.17,0-5.25,2.08-5.25,4.82s2.02,4.82,5.13,4.82h.06c3.23,0,5.25-2.14,5.25-4.82-.06-2.74-2.01-4.82-5.18-4.82h0ZM28.92,70.67h9.27v-27.89h-9.27v27.89Z"/>
</svg>